<mxfile host="Electron" agent="Mozilla/5.0 (Macintosh; Intel Mac OS X 10_15_7) AppleWebKit/537.36 (KHTML, like Gecko) draw.io/25.0.2 Chrome/128.0.6613.186 Electron/32.2.5 Safari/537.36" version="25.0.2">
  <diagram name="Page-1" id="xR3JLQ6e_WSLYNQZP8Ii">
    <mxGraphModel dx="4897" dy="4617" grid="0" gridSize="10" guides="1" tooltips="1" connect="1" arrows="1" fold="1" page="0" pageScale="1" pageWidth="850" pageHeight="1100" math="0" shadow="0">
      <root>
        <mxCell id="0" />
        <mxCell id="1" parent="0" />
        <mxCell id="UQ2wOj1Ykp0bINoKUKdO-69" value="Firebase functions" style="ellipse;shape=cloud;whiteSpace=wrap;html=1;" vertex="1" parent="1">
          <mxGeometry x="263" y="-1486" width="431" height="254" as="geometry" />
        </mxCell>
        <mxCell id="kle8v9W5ZTpEe-X7ypSS-1" value="Admin" style="shape=umlActor;verticalLabelPosition=bottom;verticalAlign=top;html=1;outlineConnect=0;" parent="1" vertex="1">
          <mxGeometry x="-23" y="-1337.5" width="30" height="60" as="geometry" />
        </mxCell>
        <mxCell id="UQ2wOj1Ykp0bINoKUKdO-1" value="User" style="shape=umlActor;verticalLabelPosition=bottom;verticalAlign=top;html=1;outlineConnect=0;" vertex="1" parent="1">
          <mxGeometry x="384" y="-1624" width="30" height="60" as="geometry" />
        </mxCell>
        <mxCell id="UQ2wOj1Ykp0bINoKUKdO-5" value="Data Management" style="shape=cube;whiteSpace=wrap;html=1;boundedLbl=1;backgroundOutline=1;darkOpacity=0.05;darkOpacity2=0.1;" vertex="1" parent="1">
          <mxGeometry x="418.5" y="-1342" width="120" height="80" as="geometry" />
        </mxCell>
        <mxCell id="UQ2wOj1Ykp0bINoKUKdO-7" value="&lt;h1 style=&quot;margin-top: 0px;&quot;&gt;Data Management&lt;/h1&gt;&lt;p&gt;A service to insert brute data inside the firebase, this service is built in node and convert CSV files in Documents to insert into firebase collections&lt;/p&gt;" style="text;html=1;whiteSpace=wrap;overflow=hidden;rounded=0;" vertex="1" parent="1">
          <mxGeometry x="-547" y="-1621.5" width="243" height="120" as="geometry" />
        </mxCell>
        <mxCell id="UQ2wOj1Ykp0bINoKUKdO-8" value="Import CSV files" style="text;html=1;align=center;verticalAlign=middle;whiteSpace=wrap;rounded=0;" vertex="1" parent="1">
          <mxGeometry x="111.99999999999982" y="-1367" width="97.3" height="49" as="geometry" />
        </mxCell>
        <mxCell id="UQ2wOj1Ykp0bINoKUKdO-10" value="Interact with the system using browser or mobile apks" style="text;html=1;align=center;verticalAlign=middle;whiteSpace=wrap;rounded=0;" vertex="1" parent="1">
          <mxGeometry x="565" y="-1670.5" width="97.3" height="49" as="geometry" />
        </mxCell>
        <mxCell id="UQ2wOj1Ykp0bINoKUKdO-12" value="External systems" style="shape=umlActor;verticalLabelPosition=bottom;verticalAlign=top;html=1;outlineConnect=0;" vertex="1" parent="1">
          <mxGeometry x="323" y="-355" width="30" height="60" as="geometry" />
        </mxCell>
        <mxCell id="UQ2wOj1Ykp0bINoKUKdO-20" value="Routing REST APIs" style="text;html=1;align=center;verticalAlign=middle;whiteSpace=wrap;rounded=0;" vertex="1" parent="1">
          <mxGeometry x="483.00000000000006" y="-371" width="110.3" height="30" as="geometry" />
        </mxCell>
        <mxCell id="UQ2wOj1Ykp0bINoKUKdO-22" value="Google Cloud Platform" style="swimlane;whiteSpace=wrap;html=1;fillColor=#6B09E1;" vertex="1" parent="1">
          <mxGeometry x="835" y="-2048" width="1217" height="908" as="geometry" />
        </mxCell>
        <mxCell id="kle8v9W5ZTpEe-X7ypSS-60" value="Firebase" style="swimlane;whiteSpace=wrap;html=1;" parent="UQ2wOj1Ykp0bINoKUKdO-22" vertex="1">
          <mxGeometry x="839" y="84" width="293" height="689" as="geometry" />
        </mxCell>
        <mxCell id="kle8v9W5ZTpEe-X7ypSS-61" value="Firebase auth" style="ellipse;shape=cloud;whiteSpace=wrap;html=1;" parent="kle8v9W5ZTpEe-X7ypSS-60" vertex="1">
          <mxGeometry x="16" y="18" width="258" height="152" as="geometry" />
        </mxCell>
        <mxCell id="kle8v9W5ZTpEe-X7ypSS-59" value="" style="html=1;verticalLabelPosition=bottom;align=center;labelBackgroundColor=#ffffff;verticalAlign=top;strokeWidth=2;strokeColor=#006EAF;shadow=0;dashed=0;shape=mxgraph.ios7.icons.locked;fillColor=#1ba1e2;fontColor=#ffffff;" parent="kle8v9W5ZTpEe-X7ypSS-60" vertex="1">
          <mxGeometry x="91" y="47" width="24" height="30" as="geometry" />
        </mxCell>
        <mxCell id="kle8v9W5ZTpEe-X7ypSS-63" value="" style="sketch=0;verticalLabelPosition=bottom;sketch=0;aspect=fixed;html=1;verticalAlign=top;strokeColor=#006EAF;fillColor=#1ba1e2;align=center;outlineConnect=0;pointerEvents=1;shape=mxgraph.citrix2.authentication_google;fontColor=#ffffff;" parent="kle8v9W5ZTpEe-X7ypSS-60" vertex="1">
          <mxGeometry x="129" y="47" width="32" height="32" as="geometry" />
        </mxCell>
        <mxCell id="kle8v9W5ZTpEe-X7ypSS-64" value="" style="dashed=0;outlineConnect=0;html=1;align=center;labelPosition=center;verticalLabelPosition=bottom;verticalAlign=top;shape=mxgraph.weblogos.apple;fillColor=#1ba1e2;strokeColor=#006EAF;fontColor=#ffffff;" parent="kle8v9W5ZTpEe-X7ypSS-60" vertex="1">
          <mxGeometry x="177" y="48.5" width="28" height="29" as="geometry" />
        </mxCell>
        <mxCell id="kle8v9W5ZTpEe-X7ypSS-66" value="Firestore" style="ellipse;shape=cloud;whiteSpace=wrap;html=1;" parent="kle8v9W5ZTpEe-X7ypSS-60" vertex="1">
          <mxGeometry x="16" y="168" width="258" height="152" as="geometry" />
        </mxCell>
        <mxCell id="kle8v9W5ZTpEe-X7ypSS-65" value="" style="points=[];aspect=fixed;html=1;align=center;shadow=0;dashed=0;fillColor=#1ba1e2;strokeColor=#006EAF;shape=mxgraph.alibaba_cloud.realtime_compute;fontColor=#ffffff;" parent="kle8v9W5ZTpEe-X7ypSS-60" vertex="1">
          <mxGeometry x="115" y="191" width="40" height="40" as="geometry" />
        </mxCell>
        <mxCell id="kle8v9W5ZTpEe-X7ypSS-67" value="Firebase hosting" style="ellipse;shape=cloud;whiteSpace=wrap;html=1;" parent="kle8v9W5ZTpEe-X7ypSS-60" vertex="1">
          <mxGeometry x="16" y="331" width="258" height="152" as="geometry" />
        </mxCell>
        <mxCell id="kle8v9W5ZTpEe-X7ypSS-68" value="" style="points=[];aspect=fixed;html=1;align=center;shadow=0;dashed=0;fillColor=#1ba1e2;strokeColor=#006EAF;shape=mxgraph.alibaba_cloud.elastic_web_hosting;fontColor=#ffffff;" parent="kle8v9W5ZTpEe-X7ypSS-60" vertex="1">
          <mxGeometry x="120.4" y="357" width="40.6" height="39" as="geometry" />
        </mxCell>
        <mxCell id="kle8v9W5ZTpEe-X7ypSS-73" value="Firebase functions" style="ellipse;shape=cloud;whiteSpace=wrap;html=1;" parent="kle8v9W5ZTpEe-X7ypSS-60" vertex="1">
          <mxGeometry x="16" y="502" width="258" height="152" as="geometry" />
        </mxCell>
        <mxCell id="kle8v9W5ZTpEe-X7ypSS-74" value="" style="editableCssRules=.*;html=1;shape=image;verticalLabelPosition=bottom;labelBackgroundColor=#ffffff;verticalAlign=top;aspect=fixed;imageAspect=0;image=data:image/svg+xml,PHN2ZyB4bWxucz0iaHR0cDovL3d3dy53My5vcmcvMjAwMC9zdmciIHhtbG5zOnY9Imh0dHBzOi8vdmVjdGEuaW8vbmFubyIgd2lkdGg9IjIwIiBoZWlnaHQ9IjE5Ljk4OTk5OTc3MTExODE2NCIgdmlld0JveD0iMCAwIDIwIDE5Ljk4OTk5OTc3MTExODE2NCI+JiN4YTsJPHN0eWxlIHR5cGU9InRleHQvY3NzIj4uc3QwIHsgZmlsbDogcmdiKDI3LCAxNjEsIDIyNik7IH0gLnN0MSB7IGZpbGw6IHJnYigyNywgMTYxLCAyMjYpOyB9IC5zdDIgeyBmaWxsOiByZ2IoMjcsIDE2MSwgMjI2KTsgfSA8L3N0eWxlPiYjeGE7CTxwYXRoIGNsYXNzPSJzdDEiIGQ9Ik0zIDMuOTlMMCA2LjQydjcuMTNsMyAyLjQ0eiIvPiYjeGE7CTxwYXRoIGNsYXNzPSJzdDAiIGQ9Ik0zIDMuOTlsLTMgNCAzLTJ6bS0zIDhsMyA0di0yeiIvPiYjeGE7CTxwYXRoIGNsYXNzPSJzdDIiIGQ9Ik0wIDE1Ljk5bDQgNCAyLTItNi02em0uMDEtOEw1Ljk5IDJsLTItMkwwIDMuOTl6Ii8+JiN4YTsJPHBhdGggY2xhc3M9InN0MSIgZD0iTTE3IDE2bDMtMi40MlY2LjQ0TDE3IDR6Ii8+JiN4YTsJPHBhdGggY2xhc3M9InN0MCIgZD0iTTE3IDE2bDMtNC0zIDJ6bTMtOGwtMy00djJ6Ii8+JiN4YTsJPGcgY2xhc3M9InN0MiI+JiN4YTsJCTxwYXRoIGQ9Ik0yMCA0bC00LTQtMiAyIDYgNnptLS4wMSA4bC01Ljk4IDUuOTkgMiAyTDIwIDE2eiIvPiYjeGE7CQk8Y2lyY2xlIGN4PSI2IiBjeT0iOS45OSIgcj0iMSIvPiYjeGE7CQk8Y2lyY2xlIGN4PSIxMCIgY3k9IjkuOTkiIHI9IjEiLz4mI3hhOwkJPGNpcmNsZSBjeD0iMTMuOTkiIGN5PSI5Ljk5IiByPSIxIi8+JiN4YTsJPC9nPiYjeGE7PC9zdmc+;" parent="kle8v9W5ZTpEe-X7ypSS-60" vertex="1">
          <mxGeometry x="136.5" y="541" width="20" height="20" as="geometry" />
        </mxCell>
        <mxCell id="kle8v9W5ZTpEe-X7ypSS-81" value="" style="ellipse;shape=cloud;whiteSpace=wrap;html=1;image=data:image/svg+xml,PHN2ZyB4bWxucz0iaHR0cDovL3d3dy53My5vcmcvMjAwMC9zdmciIHhtbG5zOnY9Imh0dHBzOi8vdmVjdGEuaW8vbmFubyIgd2lkdGg9IjIwIiBoZWlnaHQ9IjE5Ljk4OTk5OTc3MTExODE2NCIgdmlld0JveD0iMCAwIDIwIDE5Ljk4OTk5OTc3MTExODE2NCI+JiN4YTsJPHN0eWxlIHR5cGU9InRleHQvY3NzIj4uc3QwIHsgZmlsbDogcmdiKDI3LCAxNjEsIDIyNik7IH0gLnN0MSB7IGZpbGw6IHJnYigyNywgMTYxLCAyMjYpOyB9IC5zdDIgeyBmaWxsOiByZ2IoMTc0LCAyMDMsIDI1MCk7IH0gPC9zdHlsZT4mI3hhOwk8cGF0aCBjbGFzcz0ic3QxIiBkPSJNMyAzLjk5TDAgNi40MnY3LjEzbDMgMi40NHoiLz4mI3hhOwk8cGF0aCBjbGFzcz0ic3QwIiBkPSJNMyAzLjk5bC0zIDQgMy0yem0tMyA4bDMgNHYtMnoiLz4mI3hhOwk8cGF0aCBjbGFzcz0ic3QyIiBkPSJNMCAxNS45OWw0IDQgMi0yLTYtNnptLjAxLThMNS45OSAybC0yLTJMMCAzLjk5eiIvPiYjeGE7CTxwYXRoIGNsYXNzPSJzdDEiIGQ9Ik0xNyAxNmwzLTIuNDJWNi40NEwxNyA0eiIvPiYjeGE7CTxwYXRoIGNsYXNzPSJzdDAiIGQ9Ik0xNyAxNmwzLTQtMyAyem0zLThsLTMtNHYyeiIvPiYjeGE7CTxnIGNsYXNzPSJzdDIiPiYjeGE7CQk8cGF0aCBkPSJNMjAgNGwtNC00LTIgMiA2IDZ6bS0uMDEgOGwtNS45OCA1Ljk5IDIgMkwyMCAxNnoiLz4mI3hhOwkJPGNpcmNsZSBjeD0iNiIgY3k9IjkuOTkiIHI9IjEiLz4mI3hhOwkJPGNpcmNsZSBjeD0iMTAiIGN5PSI5Ljk5IiByPSIxIi8+JiN4YTsJCTxjaXJjbGUgY3g9IjEzLjk5IiBjeT0iOS45OSIgcj0iMSIvPiYjeGE7CTwvZz4mI3hhOzwvc3ZnPg==;" parent="UQ2wOj1Ykp0bINoKUKdO-22" vertex="1">
          <mxGeometry x="49" y="37" width="735" height="679" as="geometry" />
        </mxCell>
        <mxCell id="kle8v9W5ZTpEe-X7ypSS-88" value="mobile" style="swimlane;horizontal=0;whiteSpace=wrap;html=1;" parent="UQ2wOj1Ykp0bINoKUKdO-22" vertex="1">
          <mxGeometry x="468" y="285" width="202" height="203" as="geometry" />
        </mxCell>
        <mxCell id="kle8v9W5ZTpEe-X7ypSS-90" value="iOS" style="shape=cube;whiteSpace=wrap;html=1;boundedLbl=1;backgroundOutline=1;darkOpacity=0.05;darkOpacity2=0.1;" parent="kle8v9W5ZTpEe-X7ypSS-88" vertex="1">
          <mxGeometry x="51.5" y="14" width="120" height="80" as="geometry" />
        </mxCell>
        <mxCell id="kle8v9W5ZTpEe-X7ypSS-91" value="Android" style="shape=cube;whiteSpace=wrap;html=1;boundedLbl=1;backgroundOutline=1;darkOpacity=0.05;darkOpacity2=0.1;" parent="kle8v9W5ZTpEe-X7ypSS-88" vertex="1">
          <mxGeometry x="51.5" y="109" width="120" height="80" as="geometry" />
        </mxCell>
        <mxCell id="kle8v9W5ZTpEe-X7ypSS-82" value="Firebase hosting" style="text;html=1;align=center;verticalAlign=middle;whiteSpace=wrap;rounded=0;" parent="UQ2wOj1Ykp0bINoKUKdO-22" vertex="1">
          <mxGeometry x="334" y="175" width="139" height="28" as="geometry" />
        </mxCell>
        <mxCell id="kle8v9W5ZTpEe-X7ypSS-94" value="" style="points=[];aspect=fixed;html=1;align=center;shadow=0;dashed=0;fillColor=#1ba1e2;strokeColor=#006EAF;shape=mxgraph.alibaba_cloud.elastic_web_hosting;fontColor=#ffffff;" parent="UQ2wOj1Ykp0bINoKUKdO-22" vertex="1">
          <mxGeometry x="391.20000000000005" y="119" width="40.6" height="39" as="geometry" />
        </mxCell>
        <mxCell id="UQ2wOj1Ykp0bINoKUKdO-3" value="" style="endArrow=classic;html=1;rounded=0;" edge="1" parent="UQ2wOj1Ykp0bINoKUKdO-22" source="kle8v9W5ZTpEe-X7ypSS-81" target="kle8v9W5ZTpEe-X7ypSS-67">
          <mxGeometry width="50" height="50" relative="1" as="geometry">
            <mxPoint x="505" y="945" as="sourcePoint" />
            <mxPoint x="926" y="885" as="targetPoint" />
          </mxGeometry>
        </mxCell>
        <mxCell id="UQ2wOj1Ykp0bINoKUKdO-23" value="web" style="swimlane;whiteSpace=wrap;html=1;" vertex="1" parent="UQ2wOj1Ykp0bINoKUKdO-22">
          <mxGeometry x="229" y="220" width="200" height="360" as="geometry" />
        </mxCell>
        <mxCell id="kle8v9W5ZTpEe-X7ypSS-83" value="Angular" style="shape=cube;whiteSpace=wrap;html=1;boundedLbl=1;backgroundOutline=1;darkOpacity=0.05;darkOpacity2=0.1;" parent="UQ2wOj1Ykp0bINoKUKdO-23" vertex="1">
          <mxGeometry x="36" y="56" width="120" height="80" as="geometry" />
        </mxCell>
        <mxCell id="kle8v9W5ZTpEe-X7ypSS-85" value="Vue" style="shape=cube;whiteSpace=wrap;html=1;boundedLbl=1;backgroundOutline=1;darkOpacity=0.05;darkOpacity2=0.1;" parent="UQ2wOj1Ykp0bINoKUKdO-23" vertex="1">
          <mxGeometry x="40" y="162" width="120" height="80" as="geometry" />
        </mxCell>
        <mxCell id="kle8v9W5ZTpEe-X7ypSS-84" value="React" style="shape=cube;whiteSpace=wrap;html=1;boundedLbl=1;backgroundOutline=1;darkOpacity=0.05;darkOpacity2=0.1;" parent="UQ2wOj1Ykp0bINoKUKdO-23" vertex="1">
          <mxGeometry x="40" y="268" width="120" height="80" as="geometry" />
        </mxCell>
        <mxCell id="UQ2wOj1Ykp0bINoKUKdO-24" value="Kubernetes" style="swimlane;whiteSpace=wrap;html=1;fillColor=#6B09E1;" vertex="1" parent="1">
          <mxGeometry x="631" y="-902" width="2182" height="1373" as="geometry" />
        </mxCell>
        <mxCell id="kle8v9W5ZTpEe-X7ypSS-4" value="" style="shape=flexArrow;endArrow=classic;html=1;rounded=0;entryX=-0.001;entryY=0.561;entryDx=0;entryDy=0;entryPerimeter=0;exitX=0.943;exitY=0.607;exitDx=0;exitDy=0;exitPerimeter=0;" parent="UQ2wOj1Ykp0bINoKUKdO-24" target="kle8v9W5ZTpEe-X7ypSS-6" edge="1" source="UQ2wOj1Ykp0bINoKUKdO-48">
          <mxGeometry width="50" height="50" relative="1" as="geometry">
            <mxPoint x="1132" y="331" as="sourcePoint" />
            <mxPoint x="1426" y="331" as="targetPoint" />
          </mxGeometry>
        </mxCell>
        <mxCell id="kle8v9W5ZTpEe-X7ypSS-6" value="firebase Injector" style="shape=cube;whiteSpace=wrap;html=1;boundedLbl=1;backgroundOutline=1;darkOpacity=0.05;darkOpacity2=0.1;" parent="UQ2wOj1Ykp0bINoKUKdO-24" vertex="1">
          <mxGeometry x="1465" y="262" width="272" height="124" as="geometry" />
        </mxCell>
        <mxCell id="kle8v9W5ZTpEe-X7ypSS-7" value="Kafka-stream" style="shape=cylinder3;whiteSpace=wrap;html=1;boundedLbl=1;backgroundOutline=1;size=15;" parent="UQ2wOj1Ykp0bINoKUKdO-24" vertex="1">
          <mxGeometry x="841" y="694" width="856" height="80" as="geometry" />
        </mxCell>
        <mxCell id="kle8v9W5ZTpEe-X7ypSS-9" value="Java-API" style="shape=cube;whiteSpace=wrap;html=1;boundedLbl=1;backgroundOutline=1;darkOpacity=0.05;darkOpacity2=0.1;" parent="UQ2wOj1Ykp0bINoKUKdO-24" vertex="1">
          <mxGeometry x="290" y="689.5" width="120" height="80" as="geometry" />
        </mxCell>
        <mxCell id="kle8v9W5ZTpEe-X7ypSS-10" value="Kafka ELK connector" style="shape=cube;whiteSpace=wrap;html=1;boundedLbl=1;backgroundOutline=1;darkOpacity=0.05;darkOpacity2=0.1;" parent="UQ2wOj1Ykp0bINoKUKdO-24" vertex="1">
          <mxGeometry x="1287" y="855" width="120" height="80" as="geometry" />
        </mxCell>
        <mxCell id="kle8v9W5ZTpEe-X7ypSS-17" value="ELK" style="shape=cylinder3;whiteSpace=wrap;html=1;boundedLbl=1;backgroundOutline=1;size=15;" parent="UQ2wOj1Ykp0bINoKUKdO-24" vertex="1">
          <mxGeometry x="844" y="1040" width="825" height="80" as="geometry" />
        </mxCell>
        <mxCell id="kle8v9W5ZTpEe-X7ypSS-22" value="microservice-draft-generator" style="shape=cube;whiteSpace=wrap;html=1;boundedLbl=1;backgroundOutline=1;darkOpacity=0.05;darkOpacity2=0.1;" parent="UQ2wOj1Ykp0bINoKUKdO-24" vertex="1">
          <mxGeometry x="1006" y="865" width="120" height="80" as="geometry" />
        </mxCell>
        <mxCell id="kle8v9W5ZTpEe-X7ypSS-31" value="Grafana loki" style="shape=cube;whiteSpace=wrap;html=1;boundedLbl=1;backgroundOutline=1;darkOpacity=0.05;darkOpacity2=0.1;" parent="UQ2wOj1Ykp0bINoKUKdO-24" vertex="1">
          <mxGeometry x="1023" y="1210" width="120" height="80" as="geometry" />
        </mxCell>
        <mxCell id="kle8v9W5ZTpEe-X7ypSS-33" value="Postgres DB" style="shape=cylinder3;whiteSpace=wrap;html=1;boundedLbl=1;backgroundOutline=1;size=15;" parent="UQ2wOj1Ykp0bINoKUKdO-24" vertex="1">
          <mxGeometry x="581" y="682" width="85" height="95" as="geometry" />
        </mxCell>
        <mxCell id="kle8v9W5ZTpEe-X7ypSS-36" value="Debezium" style="text;html=1;align=center;verticalAlign=middle;resizable=0;points=[];autosize=1;strokeColor=none;fillColor=none;" parent="UQ2wOj1Ykp0bINoKUKdO-24" vertex="1">
          <mxGeometry x="714" y="682" width="72" height="26" as="geometry" />
        </mxCell>
        <mxCell id="kle8v9W5ZTpEe-X7ypSS-41" value="" style="shape=flexArrow;endArrow=classic;startArrow=classic;html=1;rounded=0;entryX=0.592;entryY=0.995;entryDx=0;entryDy=0;entryPerimeter=0;" parent="UQ2wOj1Ykp0bINoKUKdO-24" source="kle8v9W5ZTpEe-X7ypSS-10" target="kle8v9W5ZTpEe-X7ypSS-7" edge="1">
          <mxGeometry width="100" height="100" relative="1" as="geometry">
            <mxPoint x="1383" y="904" as="sourcePoint" />
            <mxPoint x="1483" y="804" as="targetPoint" />
          </mxGeometry>
        </mxCell>
        <mxCell id="kle8v9W5ZTpEe-X7ypSS-42" value="" style="shape=flexArrow;endArrow=classic;startArrow=classic;html=1;rounded=0;entryX=0;entryY=0;entryDx=70;entryDy=80;entryPerimeter=0;exitX=0.627;exitY=-0.027;exitDx=0;exitDy=0;exitPerimeter=0;" parent="UQ2wOj1Ykp0bINoKUKdO-24" source="kle8v9W5ZTpEe-X7ypSS-17" target="kle8v9W5ZTpEe-X7ypSS-10" edge="1">
          <mxGeometry width="100" height="100" relative="1" as="geometry">
            <mxPoint x="1414" y="1085" as="sourcePoint" />
            <mxPoint x="1514" y="985" as="targetPoint" />
          </mxGeometry>
        </mxCell>
        <mxCell id="kle8v9W5ZTpEe-X7ypSS-43" value="Micro services - Data mapper" style="swimlane;whiteSpace=wrap;html=1;" parent="UQ2wOj1Ykp0bINoKUKdO-24" vertex="1">
          <mxGeometry x="1897" y="478" width="220" height="562" as="geometry" />
        </mxCell>
        <mxCell id="kle8v9W5ZTpEe-X7ypSS-12" value="Python IA" style="shape=cube;whiteSpace=wrap;html=1;boundedLbl=1;backgroundOutline=1;darkOpacity=0.05;darkOpacity2=0.1;" parent="kle8v9W5ZTpEe-X7ypSS-43" vertex="1">
          <mxGeometry x="49.5" y="81" width="126.5" height="78" as="geometry" />
        </mxCell>
        <mxCell id="kle8v9W5ZTpEe-X7ypSS-11" value="Kafka Stream Join Tables" style="shape=cube;whiteSpace=wrap;html=1;boundedLbl=1;backgroundOutline=1;darkOpacity=0.05;darkOpacity2=0.1;" parent="kle8v9W5ZTpEe-X7ypSS-43" vertex="1">
          <mxGeometry x="49.5" y="220" width="130.5" height="81" as="geometry" />
        </mxCell>
        <mxCell id="kle8v9W5ZTpEe-X7ypSS-45" value="Data mappers" style="shape=cube;whiteSpace=wrap;html=1;boundedLbl=1;backgroundOutline=1;darkOpacity=0.05;darkOpacity2=0.1;" parent="kle8v9W5ZTpEe-X7ypSS-43" vertex="1">
          <mxGeometry x="56" y="348" width="130.5" height="81" as="geometry" />
        </mxCell>
        <mxCell id="kle8v9W5ZTpEe-X7ypSS-47" value="" style="shape=flexArrow;endArrow=classic;startArrow=classic;html=1;rounded=0;exitX=1;exitY=0.5;exitDx=0;exitDy=0;exitPerimeter=0;" parent="UQ2wOj1Ykp0bINoKUKdO-24" source="kle8v9W5ZTpEe-X7ypSS-7" edge="1">
          <mxGeometry width="100" height="100" relative="1" as="geometry">
            <mxPoint x="1694" y="694" as="sourcePoint" />
            <mxPoint x="1897" y="734" as="targetPoint" />
          </mxGeometry>
        </mxCell>
        <mxCell id="kle8v9W5ZTpEe-X7ypSS-49" value="Any MS" style="shape=cube;whiteSpace=wrap;html=1;boundedLbl=1;backgroundOutline=1;darkOpacity=0.05;darkOpacity2=0.1;" parent="UQ2wOj1Ykp0bINoKUKdO-24" vertex="1">
          <mxGeometry x="1385" y="1210" width="120" height="80" as="geometry" />
        </mxCell>
        <mxCell id="kle8v9W5ZTpEe-X7ypSS-51" value="&lt;h1 style=&quot;margin-top: 0px;&quot;&gt;Java API&lt;/h1&gt;&lt;div&gt;Documented with swagger&lt;/div&gt;&lt;div&gt;Use Spring data to connect to Postgres&lt;/div&gt;" style="text;html=1;whiteSpace=wrap;overflow=hidden;rounded=0;" parent="UQ2wOj1Ykp0bINoKUKdO-24" vertex="1">
          <mxGeometry x="50" y="689.5" width="180" height="120" as="geometry" />
        </mxCell>
        <mxCell id="kle8v9W5ZTpEe-X7ypSS-52" value="" style="shape=flexArrow;endArrow=classic;startArrow=classic;html=1;rounded=0;entryX=0;entryY=0.5;entryDx=0;entryDy=0;entryPerimeter=0;exitX=1;exitY=0.5;exitDx=0;exitDy=0;exitPerimeter=0;" parent="UQ2wOj1Ykp0bINoKUKdO-24" source="kle8v9W5ZTpEe-X7ypSS-33" target="kle8v9W5ZTpEe-X7ypSS-7" edge="1">
          <mxGeometry width="100" height="100" relative="1" as="geometry">
            <mxPoint x="988" y="928" as="sourcePoint" />
            <mxPoint x="1088" y="828" as="targetPoint" />
          </mxGeometry>
        </mxCell>
        <mxCell id="kle8v9W5ZTpEe-X7ypSS-54" value="" style="shape=flexArrow;endArrow=classic;startArrow=classic;html=1;rounded=0;entryX=0;entryY=0.5;entryDx=0;entryDy=0;entryPerimeter=0;" parent="UQ2wOj1Ykp0bINoKUKdO-24" source="kle8v9W5ZTpEe-X7ypSS-9" target="kle8v9W5ZTpEe-X7ypSS-33" edge="1">
          <mxGeometry width="100" height="100" relative="1" as="geometry">
            <mxPoint x="596" y="855.5" as="sourcePoint" />
            <mxPoint x="696" y="755.5" as="targetPoint" />
          </mxGeometry>
        </mxCell>
        <mxCell id="kle8v9W5ZTpEe-X7ypSS-55" value="Spring Data" style="text;html=1;align=center;verticalAlign=middle;resizable=0;points=[];autosize=1;strokeColor=none;fillColor=none;" parent="UQ2wOj1Ykp0bINoKUKdO-24" vertex="1">
          <mxGeometry x="455" y="682" width="81" height="26" as="geometry" />
        </mxCell>
        <mxCell id="kle8v9W5ZTpEe-X7ypSS-57" value="" style="shape=flexArrow;endArrow=classic;startArrow=classic;html=1;rounded=0;exitX=0.274;exitY=-0.001;exitDx=0;exitDy=0;exitPerimeter=0;" parent="UQ2wOj1Ykp0bINoKUKdO-24" source="kle8v9W5ZTpEe-X7ypSS-17" target="kle8v9W5ZTpEe-X7ypSS-22" edge="1">
          <mxGeometry width="100" height="100" relative="1" as="geometry">
            <mxPoint x="1128" y="805" as="sourcePoint" />
            <mxPoint x="1228" y="705" as="targetPoint" />
          </mxGeometry>
        </mxCell>
        <mxCell id="kle8v9W5ZTpEe-X7ypSS-58" value="" style="shape=flexArrow;endArrow=classic;startArrow=classic;html=1;rounded=0;exitX=0;exitY=0;exitDx=50;exitDy=0;exitPerimeter=0;entryX=0.245;entryY=0.969;entryDx=0;entryDy=0;entryPerimeter=0;" parent="UQ2wOj1Ykp0bINoKUKdO-24" source="kle8v9W5ZTpEe-X7ypSS-22" target="kle8v9W5ZTpEe-X7ypSS-7" edge="1">
          <mxGeometry width="100" height="100" relative="1" as="geometry">
            <mxPoint x="1128" y="805" as="sourcePoint" />
            <mxPoint x="1228" y="705" as="targetPoint" />
          </mxGeometry>
        </mxCell>
        <mxCell id="kle8v9W5ZTpEe-X7ypSS-69" value="Watched collections" style="text;html=1;align=center;verticalAlign=middle;resizable=0;points=[];autosize=1;strokeColor=none;fillColor=none;" parent="UQ2wOj1Ykp0bINoKUKdO-24" vertex="1">
          <mxGeometry x="1247" y="280" width="124" height="26" as="geometry" />
        </mxCell>
        <mxCell id="kle8v9W5ZTpEe-X7ypSS-71" value="" style="shape=flexArrow;endArrow=classic;html=1;rounded=0;exitX=0.394;exitY=0.985;exitDx=0;exitDy=0;exitPerimeter=0;" parent="UQ2wOj1Ykp0bINoKUKdO-24" source="kle8v9W5ZTpEe-X7ypSS-6" edge="1">
          <mxGeometry width="50" height="50" relative="1" as="geometry">
            <mxPoint x="1575" y="502" as="sourcePoint" />
            <mxPoint x="1582" y="690" as="targetPoint" />
          </mxGeometry>
        </mxCell>
        <mxCell id="kle8v9W5ZTpEe-X7ypSS-72" value="&lt;h1 style=&quot;margin-top: 0px;&quot;&gt;Firebase injector&lt;/h1&gt;&lt;p&gt;Microservice responsible to read data from firebase and store data on the kafka broker&lt;/p&gt;" style="text;html=1;whiteSpace=wrap;overflow=hidden;rounded=0;" parent="UQ2wOj1Ykp0bINoKUKdO-24" vertex="1">
          <mxGeometry x="1747" y="221" width="243" height="120" as="geometry" />
        </mxCell>
        <mxCell id="kle8v9W5ZTpEe-X7ypSS-75" value="firebase data provider" style="shape=cube;whiteSpace=wrap;html=1;boundedLbl=1;backgroundOutline=1;darkOpacity=0.05;darkOpacity2=0.1;" parent="UQ2wOj1Ykp0bINoKUKdO-24" vertex="1">
          <mxGeometry x="831" y="462" width="272" height="124" as="geometry" />
        </mxCell>
        <mxCell id="kle8v9W5ZTpEe-X7ypSS-76" value="&lt;h1 style=&quot;margin-top: 0px;&quot;&gt;Firebase data provider&lt;/h1&gt;&lt;p&gt;Read information from Kafka broker and send to firebase&lt;/p&gt;" style="text;html=1;whiteSpace=wrap;overflow=hidden;rounded=0;" parent="UQ2wOj1Ykp0bINoKUKdO-24" vertex="1">
          <mxGeometry x="1173" y="478" width="324" height="82" as="geometry" />
        </mxCell>
        <mxCell id="kle8v9W5ZTpEe-X7ypSS-77" value="" style="shape=flexArrow;endArrow=classic;startArrow=classic;html=1;rounded=0;entryX=0.715;entryY=0.973;entryDx=0;entryDy=0;entryPerimeter=0;exitX=0;exitY=0;exitDx=50;exitDy=0;exitPerimeter=0;" parent="UQ2wOj1Ykp0bINoKUKdO-24" source="kle8v9W5ZTpEe-X7ypSS-49" target="kle8v9W5ZTpEe-X7ypSS-17" edge="1">
          <mxGeometry width="100" height="100" relative="1" as="geometry">
            <mxPoint x="1195" y="1288" as="sourcePoint" />
            <mxPoint x="1295" y="1188" as="targetPoint" />
          </mxGeometry>
        </mxCell>
        <mxCell id="kle8v9W5ZTpEe-X7ypSS-78" value="" style="shape=flexArrow;endArrow=classic;html=1;rounded=0;entryX=0.488;entryY=0.045;entryDx=0;entryDy=0;entryPerimeter=0;exitX=0.283;exitY=0.973;exitDx=0;exitDy=0;exitPerimeter=0;" parent="UQ2wOj1Ykp0bINoKUKdO-24" source="kle8v9W5ZTpEe-X7ypSS-17" target="kle8v9W5ZTpEe-X7ypSS-31" edge="1">
          <mxGeometry width="50" height="50" relative="1" as="geometry">
            <mxPoint x="1003" y="1187" as="sourcePoint" />
            <mxPoint x="1053" y="1137" as="targetPoint" />
          </mxGeometry>
        </mxCell>
        <mxCell id="kle8v9W5ZTpEe-X7ypSS-80" value="" style="shape=flexArrow;endArrow=classic;startArrow=classic;html=1;rounded=0;entryX=0.163;entryY=0.035;entryDx=0;entryDy=0;entryPerimeter=0;" parent="UQ2wOj1Ykp0bINoKUKdO-24" target="kle8v9W5ZTpEe-X7ypSS-7" edge="1">
          <mxGeometry width="100" height="100" relative="1" as="geometry">
            <mxPoint x="977" y="586" as="sourcePoint" />
            <mxPoint x="1078" y="434" as="targetPoint" />
          </mxGeometry>
        </mxCell>
        <mxCell id="UQ2wOj1Ykp0bINoKUKdO-11" value="&lt;h1 style=&quot;margin-top: 0px;&quot;&gt;Watched collections&lt;/h1&gt;&lt;p&gt;Firebase injector starts one process for each configured collection, when this collection receive a new value, the injector will convert this in a object and write in the Kafka topic&lt;/p&gt;" style="text;html=1;whiteSpace=wrap;overflow=hidden;rounded=0;" vertex="1" parent="UQ2wOj1Ykp0bINoKUKdO-24">
          <mxGeometry x="1193" y="122" width="243" height="120" as="geometry" />
        </mxCell>
        <mxCell id="UQ2wOj1Ykp0bINoKUKdO-48" value="Firestore" style="ellipse;shape=cloud;whiteSpace=wrap;html=1;" vertex="1" parent="UQ2wOj1Ykp0bINoKUKdO-24">
          <mxGeometry x="835" y="240" width="258" height="152" as="geometry" />
        </mxCell>
        <mxCell id="UQ2wOj1Ykp0bINoKUKdO-49" value="" style="points=[];aspect=fixed;html=1;align=center;shadow=0;dashed=0;fillColor=#1ba1e2;strokeColor=#006EAF;shape=mxgraph.alibaba_cloud.realtime_compute;fontColor=#ffffff;" vertex="1" parent="UQ2wOj1Ykp0bINoKUKdO-24">
          <mxGeometry x="944" y="262" width="40" height="40" as="geometry" />
        </mxCell>
        <mxCell id="UQ2wOj1Ykp0bINoKUKdO-50" value="&lt;h1 style=&quot;margin-top: 0px;&quot;&gt;Start Point&lt;/h1&gt;&lt;p&gt;The entry point of the app is the firestore webhooks, when the collection receive one new value, the process starts consuming the data and providing on the kafka&lt;/p&gt;" style="text;html=1;whiteSpace=wrap;overflow=hidden;rounded=0;" vertex="1" parent="UQ2wOj1Ykp0bINoKUKdO-24">
          <mxGeometry x="12" y="35" width="243" height="120" as="geometry" />
        </mxCell>
        <mxCell id="UQ2wOj1Ykp0bINoKUKdO-51" value="&lt;h1 style=&quot;margin-top: 0px;&quot;&gt;Data Processing&lt;/h1&gt;&lt;p&gt;The data inside of the Kafka is available to be cosumed, transformed,&amp;nbsp;&lt;/p&gt;" style="text;html=1;whiteSpace=wrap;overflow=hidden;rounded=0;" vertex="1" parent="UQ2wOj1Ykp0bINoKUKdO-24">
          <mxGeometry x="293" y="43.5" width="243" height="120" as="geometry" />
        </mxCell>
        <mxCell id="UQ2wOj1Ykp0bINoKUKdO-52" value="&lt;h1 style=&quot;margin-top: 0px;&quot;&gt;Receiving processed data&lt;/h1&gt;&lt;p&gt;The public topics allow to consume processed data and can be used&lt;span style=&quot;background-color: initial;&quot;&gt;&amp;nbsp;as source of AI data model or integrated with any kind of system.&amp;nbsp;&lt;br&gt;&lt;br&gt;In this example, there is one service to provide chart data to firebase as result of the process.&lt;/span&gt;&lt;/p&gt;" style="text;html=1;whiteSpace=wrap;overflow=hidden;rounded=0;" vertex="1" parent="UQ2wOj1Ykp0bINoKUKdO-24">
          <mxGeometry x="555.5" y="31" width="321" height="140" as="geometry" />
        </mxCell>
        <mxCell id="UQ2wOj1Ykp0bINoKUKdO-53" value="" style="points=[[0.25,0.25,0],[0.5,0,0],[0.75,0.25,0],[1,0.5,0],[0.75,0.75,0],[0.5,1,0],[0.25,0.75,0],[0,0.5,0]];shape=mxgraph.bpmn.gateway2;html=1;verticalLabelPosition=bottom;labelBackgroundColor=#ffffff;verticalAlign=top;align=center;perimeter=rhombusPerimeter;outlineConnect=0;outline=standard;symbol=general;" vertex="1" parent="UQ2wOj1Ykp0bINoKUKdO-24">
          <mxGeometry x="914" y="80" width="50" height="50" as="geometry" />
        </mxCell>
        <mxCell id="UQ2wOj1Ykp0bINoKUKdO-54" value="Start the process when receive a new data" style="text;html=1;align=center;verticalAlign=middle;whiteSpace=wrap;rounded=0;" vertex="1" parent="UQ2wOj1Ykp0bINoKUKdO-24">
          <mxGeometry x="986" y="92" width="123" height="43" as="geometry" />
        </mxCell>
        <mxCell id="UQ2wOj1Ykp0bINoKUKdO-55" style="edgeStyle=orthogonalEdgeStyle;rounded=0;orthogonalLoop=1;jettySize=auto;html=1;entryX=0.4;entryY=0.1;entryDx=0;entryDy=0;entryPerimeter=0;" edge="1" parent="UQ2wOj1Ykp0bINoKUKdO-24" source="UQ2wOj1Ykp0bINoKUKdO-53" target="UQ2wOj1Ykp0bINoKUKdO-48">
          <mxGeometry relative="1" as="geometry" />
        </mxCell>
        <mxCell id="UQ2wOj1Ykp0bINoKUKdO-56" value="" style="shape=flexArrow;endArrow=classic;html=1;rounded=0;exitX=0;exitY=0;exitDx=126;exitDy=0;exitPerimeter=0;entryX=0.468;entryY=0.932;entryDx=0;entryDy=0;entryPerimeter=0;" edge="1" parent="UQ2wOj1Ykp0bINoKUKdO-24" source="kle8v9W5ZTpEe-X7ypSS-75" target="UQ2wOj1Ykp0bINoKUKdO-48">
          <mxGeometry width="50" height="50" relative="1" as="geometry">
            <mxPoint x="736" y="299" as="sourcePoint" />
            <mxPoint x="786" y="249" as="targetPoint" />
          </mxGeometry>
        </mxCell>
        <mxCell id="UQ2wOj1Ykp0bINoKUKdO-16" value="Gateway" style="shape=cube;whiteSpace=wrap;html=1;boundedLbl=1;backgroundOutline=1;darkOpacity=0.05;darkOpacity2=0.1;" vertex="1" parent="UQ2wOj1Ykp0bINoKUKdO-24">
          <mxGeometry x="290" y="542" width="120" height="80" as="geometry" />
        </mxCell>
        <mxCell id="UQ2wOj1Ykp0bINoKUKdO-57" value="Firebase auth" style="ellipse;shape=cloud;whiteSpace=wrap;html=1;" vertex="1" parent="UQ2wOj1Ykp0bINoKUKdO-24">
          <mxGeometry x="567" y="240" width="258" height="152" as="geometry" />
        </mxCell>
        <mxCell id="UQ2wOj1Ykp0bINoKUKdO-58" value="" style="html=1;verticalLabelPosition=bottom;align=center;labelBackgroundColor=#ffffff;verticalAlign=top;strokeWidth=2;strokeColor=#006EAF;shadow=0;dashed=0;shape=mxgraph.ios7.icons.locked;fillColor=#1ba1e2;fontColor=#ffffff;" vertex="1" parent="UQ2wOj1Ykp0bINoKUKdO-24">
          <mxGeometry x="642" y="269" width="24" height="30" as="geometry" />
        </mxCell>
        <mxCell id="UQ2wOj1Ykp0bINoKUKdO-59" value="" style="sketch=0;verticalLabelPosition=bottom;sketch=0;aspect=fixed;html=1;verticalAlign=top;strokeColor=#006EAF;fillColor=#1ba1e2;align=center;outlineConnect=0;pointerEvents=1;shape=mxgraph.citrix2.authentication_google;fontColor=#ffffff;" vertex="1" parent="UQ2wOj1Ykp0bINoKUKdO-24">
          <mxGeometry x="680" y="269" width="32" height="32" as="geometry" />
        </mxCell>
        <mxCell id="UQ2wOj1Ykp0bINoKUKdO-60" value="" style="dashed=0;outlineConnect=0;html=1;align=center;labelPosition=center;verticalLabelPosition=bottom;verticalAlign=top;shape=mxgraph.weblogos.apple;fillColor=#1ba1e2;strokeColor=#006EAF;fontColor=#ffffff;" vertex="1" parent="UQ2wOj1Ykp0bINoKUKdO-24">
          <mxGeometry x="728" y="270.5" width="28" height="29" as="geometry" />
        </mxCell>
        <mxCell id="UQ2wOj1Ykp0bINoKUKdO-61" value="" style="html=1;verticalLabelPosition=bottom;align=center;labelBackgroundColor=#ffffff;verticalAlign=top;strokeWidth=2;strokeColor=#006EAF;shadow=0;dashed=0;shape=mxgraph.ios7.icons.locked;fillColor=#1ba1e2;fontColor=#ffffff;" vertex="1" parent="UQ2wOj1Ykp0bINoKUKdO-24">
          <mxGeometry x="704" y="567" width="24" height="30" as="geometry" />
        </mxCell>
        <mxCell id="UQ2wOj1Ykp0bINoKUKdO-62" value="" style="shape=flexArrow;endArrow=classic;startArrow=classic;html=1;rounded=0;entryX=0.55;entryY=0.95;entryDx=0;entryDy=0;entryPerimeter=0;exitX=0.458;exitY=-0.144;exitDx=0;exitDy=0;exitPerimeter=0;" edge="1" parent="UQ2wOj1Ykp0bINoKUKdO-24" source="UQ2wOj1Ykp0bINoKUKdO-61" target="UQ2wOj1Ykp0bINoKUKdO-57">
          <mxGeometry width="100" height="100" relative="1" as="geometry">
            <mxPoint x="600" y="565" as="sourcePoint" />
            <mxPoint x="700" y="465" as="targetPoint" />
          </mxGeometry>
        </mxCell>
        <mxCell id="UQ2wOj1Ykp0bINoKUKdO-64" value="" style="shape=flexArrow;endArrow=classic;startArrow=classic;html=1;rounded=0;exitX=0;exitY=0;exitDx=120;exitDy=50;exitPerimeter=0;entryX=0.153;entryY=0.822;entryDx=0;entryDy=0;entryPerimeter=0;" edge="1" parent="UQ2wOj1Ykp0bINoKUKdO-24" source="UQ2wOj1Ykp0bINoKUKdO-16" target="UQ2wOj1Ykp0bINoKUKdO-61">
          <mxGeometry width="100" height="100" relative="1" as="geometry">
            <mxPoint x="600" y="565" as="sourcePoint" />
            <mxPoint x="700" y="465" as="targetPoint" />
          </mxGeometry>
        </mxCell>
        <mxCell id="UQ2wOj1Ykp0bINoKUKdO-65" value="" style="shape=flexArrow;endArrow=classic;startArrow=classic;html=1;rounded=0;exitX=0.498;exitY=0.015;exitDx=0;exitDy=0;exitPerimeter=0;entryX=0.488;entryY=0.996;entryDx=0;entryDy=0;entryPerimeter=0;" edge="1" parent="UQ2wOj1Ykp0bINoKUKdO-24" source="kle8v9W5ZTpEe-X7ypSS-9" target="UQ2wOj1Ykp0bINoKUKdO-16">
          <mxGeometry width="100" height="100" relative="1" as="geometry">
            <mxPoint x="344" y="565" as="sourcePoint" />
            <mxPoint x="411" y="482" as="targetPoint" />
          </mxGeometry>
        </mxCell>
        <mxCell id="UQ2wOj1Ykp0bINoKUKdO-18" value="Authenticatetion" style="text;html=1;align=center;verticalAlign=middle;whiteSpace=wrap;rounded=0;" vertex="1" parent="UQ2wOj1Ykp0bINoKUKdO-24">
          <mxGeometry x="527" y="548" width="60" height="30" as="geometry" />
        </mxCell>
        <mxCell id="UQ2wOj1Ykp0bINoKUKdO-21" value="&lt;h1 style=&quot;margin-top: 0px;&quot;&gt;Authentification&lt;/h1&gt;&lt;p&gt;The gateway uses firebase auth to retreive the user information and protect the external access&lt;/p&gt;" style="text;html=1;whiteSpace=wrap;overflow=hidden;rounded=0;" vertex="1" parent="UQ2wOj1Ykp0bINoKUKdO-24">
          <mxGeometry x="423" y="407" width="243" height="120" as="geometry" />
        </mxCell>
        <mxCell id="UQ2wOj1Ykp0bINoKUKdO-67" value="&lt;h1 style=&quot;margin-top: 0px;&quot;&gt;Monitoring&lt;/h1&gt;&lt;p&gt;Kibana provides dashboards with overview of the whole environment&lt;/p&gt;" style="text;html=1;whiteSpace=wrap;overflow=hidden;rounded=0;" vertex="1" parent="UQ2wOj1Ykp0bINoKUKdO-24">
          <mxGeometry x="549" y="1107" width="243" height="120" as="geometry" />
        </mxCell>
        <mxCell id="UQ2wOj1Ykp0bINoKUKdO-66" value="" style="shape=flexArrow;endArrow=classic;startArrow=classic;html=1;rounded=0;exitX=0;exitY=0;exitDx=0;exitDy=30;exitPerimeter=0;" edge="1" parent="1" source="UQ2wOj1Ykp0bINoKUKdO-16" target="UQ2wOj1Ykp0bINoKUKdO-12">
          <mxGeometry width="100" height="100" relative="1" as="geometry">
            <mxPoint x="954" y="-643" as="sourcePoint" />
            <mxPoint x="1054" y="-743" as="targetPoint" />
          </mxGeometry>
        </mxCell>
        <mxCell id="UQ2wOj1Ykp0bINoKUKdO-68" value="" style="shape=flexArrow;endArrow=classic;html=1;rounded=0;entryX=0;entryY=0.5;entryDx=0;entryDy=0;" edge="1" parent="1" source="UQ2wOj1Ykp0bINoKUKdO-1" target="UQ2wOj1Ykp0bINoKUKdO-22">
          <mxGeometry width="50" height="50" relative="1" as="geometry">
            <mxPoint x="728" y="-1212" as="sourcePoint" />
            <mxPoint x="778" y="-1262" as="targetPoint" />
          </mxGeometry>
        </mxCell>
        <mxCell id="UQ2wOj1Ykp0bINoKUKdO-70" value="" style="editableCssRules=.*;html=1;shape=image;verticalLabelPosition=bottom;labelBackgroundColor=#ffffff;verticalAlign=top;aspect=fixed;imageAspect=0;image=data:image/svg+xml,PHN2ZyB4bWxucz0iaHR0cDovL3d3dy53My5vcmcvMjAwMC9zdmciIHhtbG5zOnY9Imh0dHBzOi8vdmVjdGEuaW8vbmFubyIgd2lkdGg9IjIwIiBoZWlnaHQ9IjE5Ljk4OTk5OTc3MTExODE2NCIgdmlld0JveD0iMCAwIDIwIDE5Ljk4OTk5OTc3MTExODE2NCI+JiN4YTsJPHN0eWxlIHR5cGU9InRleHQvY3NzIj4uc3QwIHsgZmlsbDogcmdiKDI3LCAxNjEsIDIyNik7IH0gLnN0MSB7IGZpbGw6IHJnYigyNywgMTYxLCAyMjYpOyB9IC5zdDIgeyBmaWxsOiByZ2IoMjcsIDE2MSwgMjI2KTsgfSA8L3N0eWxlPiYjeGE7CTxwYXRoIGNsYXNzPSJzdDEiIGQ9Ik0zIDMuOTlMMCA2LjQydjcuMTNsMyAyLjQ0eiIvPiYjeGE7CTxwYXRoIGNsYXNzPSJzdDAiIGQ9Ik0zIDMuOTlsLTMgNCAzLTJ6bS0zIDhsMyA0di0yeiIvPiYjeGE7CTxwYXRoIGNsYXNzPSJzdDIiIGQ9Ik0wIDE1Ljk5bDQgNCAyLTItNi02em0uMDEtOEw1Ljk5IDJsLTItMkwwIDMuOTl6Ii8+JiN4YTsJPHBhdGggY2xhc3M9InN0MSIgZD0iTTE3IDE2bDMtMi40MlY2LjQ0TDE3IDR6Ii8+JiN4YTsJPHBhdGggY2xhc3M9InN0MCIgZD0iTTE3IDE2bDMtNC0zIDJ6bTMtOGwtMy00djJ6Ii8+JiN4YTsJPGcgY2xhc3M9InN0MiI+JiN4YTsJCTxwYXRoIGQ9Ik0yMCA0bC00LTQtMiAyIDYgNnptLS4wMSA4bC01Ljk4IDUuOTkgMiAyTDIwIDE2eiIvPiYjeGE7CQk8Y2lyY2xlIGN4PSI2IiBjeT0iOS45OSIgcj0iMSIvPiYjeGE7CQk8Y2lyY2xlIGN4PSIxMCIgY3k9IjkuOTkiIHI9IjEiLz4mI3hhOwkJPGNpcmNsZSBjeD0iMTMuOTkiIGN5PSI5Ljk5IiByPSIxIi8+JiN4YTsJPC9nPiYjeGE7PC9zdmc+;" vertex="1" parent="1">
          <mxGeometry x="468.5" y="-1416" width="20" height="20" as="geometry" />
        </mxCell>
        <mxCell id="UQ2wOj1Ykp0bINoKUKdO-71" value="" style="shape=flexArrow;endArrow=classic;html=1;rounded=0;entryX=0.102;entryY=0.681;entryDx=0;entryDy=0;entryPerimeter=0;" edge="1" parent="1" source="kle8v9W5ZTpEe-X7ypSS-1" target="UQ2wOj1Ykp0bINoKUKdO-69">
          <mxGeometry width="50" height="50" relative="1" as="geometry">
            <mxPoint x="484" y="-1347" as="sourcePoint" />
            <mxPoint x="534" y="-1397" as="targetPoint" />
          </mxGeometry>
        </mxCell>
        <mxCell id="UQ2wOj1Ykp0bINoKUKdO-72" value="" style="shape=flexArrow;endArrow=classic;html=1;rounded=0;exitX=0.959;exitY=0.658;exitDx=0;exitDy=0;exitPerimeter=0;" edge="1" parent="1" source="UQ2wOj1Ykp0bINoKUKdO-69">
          <mxGeometry width="50" height="50" relative="1" as="geometry">
            <mxPoint x="719" y="-1318" as="sourcePoint" />
            <mxPoint x="832" y="-1340" as="targetPoint" />
          </mxGeometry>
        </mxCell>
      </root>
    </mxGraphModel>
  </diagram>
</mxfile>
